<?xml version="1.0" encoding="UTF-8" standalone="no"?>
<!-- Created with Inkscape (http://www.inkscape.org/) -->

<svg
   width="210mm"
   height="297mm"
   viewBox="0 0 210 297"
   version="1.1"
   id="svg1"
   inkscape:version="1.4.2 (2aeb623e1d, 2025-05-12)"
   sodipodi:docname="underline.svg"
   xmlns:inkscape="http://www.inkscape.org/namespaces/inkscape"
   xmlns:sodipodi="http://sodipodi.sourceforge.net/DTD/sodipodi-0.dtd"
   xmlns="http://www.w3.org/2000/svg"
   xmlns:svg="http://www.w3.org/2000/svg">
  <sodipodi:namedview
     id="namedview1"
     pagecolor="#ffffff"
     bordercolor="#000000"
     borderopacity="0.25"
     inkscape:showpageshadow="2"
     inkscape:pageopacity="0.0"
     inkscape:pagecheckerboard="0"
     inkscape:deskcolor="#d1d1d1"
     inkscape:document-units="mm"
     inkscape:zoom="2.7828613"
     inkscape:cx="397.43268"
     inkscape:cy="516.55468"
     inkscape:window-width="1854"
     inkscape:window-height="1011"
     inkscape:window-x="0"
     inkscape:window-y="0"
     inkscape:window-maximized="1"
     inkscape:current-layer="layer1" />
  <defs
     id="defs1" />
  <g
     inkscape:label="Layer 1"
     inkscape:groupmode="layer"
     id="layer1">
    <path
       style="opacity:0.93;fill:#b7ff00;fill-opacity:1;fill-rule:nonzero;stroke:#b7ff00;stroke-width:0.265;stroke-dasharray:none;stroke-opacity:1"
       id="path3"
       d="m 78.258685,137.5356 c 0.537953,-0.08 0.690951,-0.10844 1.32471,-0.16428 2.532738,-0.22316 5.079942,-0.24502 7.620283,-0.27871 4.797838,-0.0315 9.589752,0.22485 14.383922,0.3575 2.53299,0.0551 5.06846,0.0416 7.60117,-0.0252 2.01334,-0.0839 4.02756,-0.13186 6.04236,-0.16041 1.81404,-0.0366 3.62748,0.0334 5.44136,0.0307 0.95607,-0.0183 1.91231,-0.0215 2.86848,-0.0318 0.88314,-1.8e-4 1.76547,0.002 2.64828,-0.0246 1.52134,-0.0538 3.04345,-0.0452 4.5652,-0.021 0.98343,0.0132 1.96665,0.0411 2.9501,0.0518 0.62175,-0.001 1.24336,0.0166 1.86509,0.0108 0.75683,-0.0241 1.51349,-0.0243 2.27038,-0.006 0.55874,0.0172 1.11804,0.0113 1.67685,-1.2e-4 0.75442,0.0175 1.50788,-0.0156 2.2619,-0.0326 0.81548,-0.0145 1.6302,0.0287 2.4453,0.0423 0.0767,0.008 0.15334,0.0163 0.23001,0.0244 0,0 -3.12928,-2.29741 -3.12928,-2.29741 v 0 c -0.0756,5.3e-4 -0.15128,0.001 -0.22692,0.002 -0.77624,0.0136 -1.55204,0.0584 -2.32872,0.0423 -0.7839,-0.0167 -1.56732,-0.0492 -2.35154,-0.0326 -0.55892,-0.0109 -1.11838,-0.0179 -1.67719,-1.2e-4 -0.76203,0.0202 -1.52383,0.0166 -2.28584,-0.006 -0.6118,-0.005 -1.22346,0.0119 -1.8353,0.0108 -0.936,0.0105 -1.87176,0.0386 -2.80775,0.0515 -1.54158,0.0253 -3.0834,0.0294 -4.6246,-0.0221 -0.90164,-0.0254 -1.80268,-0.0264 -2.70457,-0.0116 -0.93363,0.009 -1.86666,0.0456 -2.79926,0.0892 -1.74174,0.0916 -3.48545,0.11578 -5.22952,0.11527 -2.03454,0.01 -4.07023,0.0206 -6.10238,0.12997 -2.41698,0.12937 -4.83553,0.18377 -7.25467,0.25816 -4.702463,0.0974 -9.405254,-0.009 -14.105786,-0.15511 -2.230213,-0.0453 -4.460777,-0.0665 -6.690855,-0.11697 -0.517763,-0.0117 -1.035415,-0.028 -1.553123,-0.0419 -0.357685,-0.0111 -0.71529,-0.0251 -1.073054,-0.0333 -0.190802,-0.004 -0.381691,-0.003 -0.572538,-0.004 z" />
    <circle
       id="path4"
       style="fill:#b7ff00;stroke:#b7ff00;stroke-width:0.264583"
       cx="125.97571"
       cy="123.78896"
       r="0.012683975" />
    <circle
       id="path5"
       style="fill:#b7ff00;stroke:#b7ff00;stroke-width:0.264583"
       cx="125.97571"
       cy="123.88404"
       r="0.012683975" />
    <circle
       id="path6"
       style="fill:#b7ff00;stroke:#b7ff00;stroke-width:0.264583"
       cx="125.97571"
       cy="123.88404"
       r="0.012683975" />
  </g>
</svg>
