<?xml version="1.0" standalone="no"?>
<!DOCTYPE svg PUBLIC "-//W3C//DTD SVG 20010904//EN"
 "http://www.w3.org/TR/2001/REC-SVG-20010904/DTD/svg10.dtd">
<svg version="1.0" xmlns="http://www.w3.org/2000/svg"
 width="199.000000pt" height="199.000000pt" viewBox="0 0 199.000000 199.000000"
 preserveAspectRatio="xMidYMid meet">

<g transform="translate(0.000000,199.000000) scale(0.100000,-0.100000)"
fill="#e1ddde" stroke="none">
<path d="M996 1477 c-45 -46 -130 -150 -191 -231 l-110 -148 -45 5 c-66 8
-136 -10 -160 -40 -11 -14 -20 -29 -20 -34 0 -5 38 -10 84 -11 l84 -3 -40 -65
c-22 -36 -59 -105 -84 -154 -54 -110 -59 -163 -17 -195 l26 -21 106 216 105
216 43 -6 c24 -3 63 -9 86 -12 l44 -6 -10 -56 c-11 -71 -4 -179 14 -217 38
-78 118 -84 194 -14 l42 39 13 -30 c24 -58 99 -76 175 -41 85 38 196 201 155
226 -5 3 -18 -12 -30 -34 -43 -86 -110 -141 -170 -141 -23 0 -33 6 -40 24 -18
48 0 99 96 272 24 44 26 54 15 68 -39 47 -121 -27 -170 -153 -17 -44 -31 -85
-31 -90 0 -5 -21 -32 -46 -60 -51 -57 -85 -66 -105 -29 -16 30 -6 165 21 298
27 127 100 356 135 418 14 25 24 46 23 47 -2 1 -16 11 -32 23 -50 38 -71 30
-160 -61z m4 -144 c-20 -60 -48 -148 -60 -196 -14 -53 -28 -86 -34 -84 -7 3
-37 10 -69 17 l-58 12 27 46 c60 103 213 312 229 312 1 0 -14 -48 -35 -107z"/>
<path d="M1394 1306 c-66 -29 -77 -90 -20 -111 57 -20 145 62 105 99 -23 22
-52 26 -85 12z"/>
</g>
</svg>
